<svg width="96" height="25" viewBox="0 0 96 25" fill="none" xmlns="http://www.w3.org/2000/svg">
<path d="M0.240023 4.72781C0.336023 3.23981 0.904023 2.07981 1.94402 1.24781C3.00002 0.415808 4.34402 -0.000192642 5.97602 -0.000192642C7.09602 -0.000192642 8.06402 0.199808 8.88002 0.599808C9.69602 0.999808 10.312 1.54381 10.728 2.23181C11.144 2.91981 11.352 3.69581 11.352 4.55981C11.352 5.55181 11.088 6.39981 10.56 7.10381C10.032 7.80781 9.40002 8.27981 8.66402 8.51981V8.61581C9.60802 8.90381 10.344 9.43181 10.872 10.1998C11.4 10.9518 11.664 11.9198 11.664 13.1038C11.664 14.0478 11.448 14.8878 11.016 15.6238C10.584 16.3598 9.94402 16.9438 9.09602 17.3758C8.24802 17.7918 7.23202 17.9998 6.04802 17.9998C4.32002 17.9998 2.89602 17.5598 1.77602 16.6798C0.672023 15.7838 0.0800225 14.5038 2.2471e-05 12.8398H2.64002C2.70402 13.6878 3.03202 14.3838 3.62402 14.9278C4.21602 15.4558 5.01602 15.7198 6.02402 15.7198C7.00002 15.7198 7.75202 15.4558 8.28002 14.9278C8.80802 14.3838 9.07202 13.6878 9.07202 12.8398C9.07202 11.7198 8.71202 10.9278 7.99202 10.4638C7.28802 9.98381 6.20002 9.74381 4.72802 9.74381H4.10402V7.48781H4.75202C6.04802 7.47181 7.03202 7.25581 7.70402 6.83981C8.39202 6.42381 8.73602 5.76781 8.73602 4.87181C8.73602 4.10381 8.48802 3.49581 7.99202 3.04781C7.49602 2.58381 6.79202 2.35181 5.88002 2.35181C4.98402 2.35181 4.28802 2.58381 3.79202 3.04781C3.29602 3.49581 3.00002 4.05581 2.90402 4.72781H0.240023ZM17.634 0.143808V17.9038H14.898V0.143808H17.634ZM33.3461 10.9678C33.3461 11.4638 33.3141 11.9118 33.2501 12.3118H23.1461C23.2261 13.3678 23.6181 14.2158 24.3221 14.8558C25.0261 15.4958 25.8901 15.8158 26.9141 15.8158C28.3861 15.8158 29.4261 15.1998 30.0341 13.9678H32.9861C32.5861 15.1838 31.8581 16.1838 30.8021 16.9678C29.7621 17.7358 28.4661 18.1198 26.9141 18.1198C25.6501 18.1198 24.5141 17.8398 23.5061 17.2798C22.5141 16.7038 21.7301 15.9038 21.1541 14.8798C20.5941 13.8398 20.3141 12.6398 20.3141 11.2798C20.3141 9.91981 20.5861 8.72781 21.1301 7.70381C21.6901 6.66381 22.4661 5.86381 23.4581 5.30381C24.4661 4.74381 25.6181 4.46381 26.9141 4.46381C28.1621 4.46381 29.2741 4.73581 30.2501 5.27981C31.2261 5.82381 31.9861 6.59181 32.5301 7.58381C33.0741 8.55981 33.3461 9.68781 33.3461 10.9678ZM30.4901 10.1038C30.4741 9.09581 30.1141 8.28781 29.4101 7.67981C28.7061 7.07181 27.8341 6.76781 26.7941 6.76781C25.8501 6.76781 25.0421 7.07181 24.3701 7.67981C23.6981 8.27181 23.2981 9.07981 23.1701 10.1038H30.4901ZM41.3666 4.46381C42.3906 4.46381 43.2946 4.67181 44.0786 5.08781C44.8786 5.48781 45.5026 5.99181 45.9506 6.59981V4.67981H48.7106V18.1198C48.7106 19.3358 48.4546 20.4158 47.9426 21.3598C47.4306 22.3198 46.6866 23.0718 45.7106 23.6158C44.7506 24.1598 43.5986 24.4318 42.2546 24.4318C40.4626 24.4318 38.9746 24.0078 37.7906 23.1598C36.6066 22.3278 35.9346 21.1918 35.7746 19.7518H38.4866C38.6946 20.4398 39.1346 20.9918 39.8066 21.4078C40.4946 21.8398 41.3106 22.0558 42.2546 22.0558C43.3586 22.0558 44.2466 21.7198 44.9186 21.0478C45.6066 20.3758 45.9506 19.3998 45.9506 18.1198V15.9118C45.4866 16.5358 44.8546 17.0638 44.0546 17.4958C43.2706 17.9118 42.3746 18.1198 41.3666 18.1198C40.2146 18.1198 39.1586 17.8318 38.1986 17.2558C37.2546 16.6638 36.5026 15.8478 35.9426 14.8078C35.3986 13.7518 35.1266 12.5598 35.1266 11.2318C35.1266 9.90381 35.3986 8.72781 35.9426 7.70381C36.5026 6.67981 37.2546 5.88781 38.1986 5.32781C39.1586 4.75181 40.2146 4.46381 41.3666 4.46381ZM45.9506 11.2798C45.9506 10.3678 45.7586 9.57581 45.3746 8.90381C45.0066 8.23181 44.5186 7.71981 43.9106 7.36781C43.3026 7.01581 42.6466 6.83981 41.9426 6.83981C41.2386 6.83981 40.5826 7.01581 39.9746 7.36781C39.3666 7.70381 38.8706 8.20781 38.4866 8.87981C38.1186 9.53581 37.9346 10.3198 37.9346 11.2318C37.9346 12.1438 38.1186 12.9438 38.4866 13.6318C38.8706 14.3198 39.3666 14.8478 39.9746 15.2158C40.5986 15.5678 41.2546 15.7438 41.9426 15.7438C42.6466 15.7438 43.3026 15.5678 43.9106 15.2158C44.5186 14.8638 45.0066 14.3518 45.3746 13.6798C45.7586 12.9918 45.9506 12.1918 45.9506 11.2798ZM51.3923 11.2318C51.3923 9.90381 51.6643 8.72781 52.2083 7.70381C52.7683 6.67981 53.5203 5.88781 54.4643 5.32781C55.4243 4.75181 56.4803 4.46381 57.6323 4.46381C58.6723 4.46381 59.5763 4.67181 60.3443 5.08781C61.1283 5.48781 61.7523 5.99181 62.2163 6.59981V4.67981H64.9763V17.9038H62.2163V15.9358C61.7523 16.5598 61.1203 17.0798 60.3203 17.4958C59.5203 17.9118 58.6083 18.1198 57.5843 18.1198C56.4483 18.1198 55.4083 17.8318 54.4643 17.2558C53.5203 16.6638 52.7683 15.8478 52.2083 14.8078C51.6643 13.7518 51.3923 12.5598 51.3923 11.2318ZM62.2163 11.2798C62.2163 10.3678 62.0243 9.57581 61.6403 8.90381C61.2723 8.23181 60.7843 7.71981 60.1763 7.36781C59.5683 7.01581 58.9123 6.83981 58.2083 6.83981C57.5043 6.83981 56.8483 7.01581 56.2403 7.36781C55.6323 7.70381 55.1363 8.20781 54.7523 8.87981C54.3843 9.53581 54.2003 10.3198 54.2003 11.2318C54.2003 12.1438 54.3843 12.9438 54.7523 13.6318C55.1363 14.3198 55.6323 14.8478 56.2403 15.2158C56.8643 15.5678 57.5203 15.7438 58.2083 15.7438C58.9123 15.7438 59.5683 15.5678 60.1763 15.2158C60.7843 14.8638 61.2723 14.3518 61.6403 13.6798C62.0243 12.9918 62.2163 12.1918 62.2163 11.2798ZM75.2419 4.46381C76.2819 4.46381 77.2099 4.67981 78.0259 5.11181C78.8579 5.54381 79.5059 6.18381 79.9699 7.03181C80.4339 7.87981 80.6659 8.90381 80.6659 10.1038V17.9038H77.9539V10.5118C77.9539 9.32781 77.6579 8.42381 77.0659 7.79981C76.4739 7.15981 75.6659 6.83981 74.6419 6.83981C73.6179 6.83981 72.8019 7.15981 72.1939 7.79981C71.6019 8.42381 71.3059 9.32781 71.3059 10.5118V17.9038H68.5699V4.67981H71.3059V6.19181C71.7539 5.64781 72.3219 5.22381 73.0099 4.91981C73.7139 4.61581 74.4579 4.46381 75.2419 4.46381ZM87.3478 6.91181V14.2318C87.3478 14.7278 87.4598 15.0878 87.6838 15.3118C87.9238 15.5198 88.3238 15.6238 88.8838 15.6238H90.5638V17.9038H88.4038C87.1718 17.9038 86.2278 17.6158 85.5718 17.0398C84.9158 16.4638 84.5878 15.5278 84.5878 14.2318V6.91181H83.0278V4.67981H84.5878V1.39181H87.3478V4.67981H90.5638V6.91181H87.3478Z" fill="white"/>
<path d="M94.1895 18.0718C93.6935 18.0718 93.2775 17.9038 92.9415 17.5678C92.6055 17.2318 92.4375 16.8158 92.4375 16.3198C92.4375 15.8238 92.6055 15.4078 92.9415 15.0718C93.2775 14.7358 93.6935 14.5678 94.1895 14.5678C94.6695 14.5678 95.0775 14.7358 95.4135 15.0718C95.7495 15.4078 95.9175 15.8238 95.9175 16.3198C95.9175 16.8158 95.7495 17.2318 95.4135 17.5678C95.0775 17.9038 94.6695 18.0718 94.1895 18.0718Z" fill="#6C7275"/>
</svg>
