<svg width="64" height="17" viewBox="0 0 64 17" fill="none" xmlns="http://www.w3.org/2000/svg">
<path d="M0.160056 3.152C0.224056 2.16 0.602722 1.38667 1.29606 0.832005C2.00006 0.277337 2.89606 3.8147e-06 3.98406 3.8147e-06C4.73072 3.8147e-06 5.37606 0.133337 5.92006 0.400004C6.46406 0.666671 6.87472 1.02934 7.15206 1.488C7.42939 1.94667 7.56806 2.464 7.56806 3.04C7.56806 3.70134 7.39206 4.26667 7.04006 4.736C6.68806 5.20534 6.26672 5.52 5.77606 5.68V5.744C6.40539 5.936 6.89606 6.288 7.24806 6.8C7.60006 7.30134 7.77606 7.94667 7.77606 8.736C7.77606 9.36534 7.63206 9.92534 7.34406 10.416C7.05606 10.9067 6.62939 11.296 6.06406 11.584C5.49872 11.8613 4.82139 12 4.03206 12C2.88006 12 1.93072 11.7067 1.18406 11.12C0.448056 10.5227 0.053389 9.66934 5.56707e-05 8.56H1.76006C1.80272 9.12534 2.02139 9.58934 2.41606 9.952C2.81072 10.304 3.34406 10.48 4.01606 10.48C4.66672 10.48 5.16806 10.304 5.52006 9.952C5.87206 9.58934 6.04806 9.12534 6.04806 8.56C6.04806 7.81334 5.80806 7.28534 5.32806 6.976C4.85872 6.656 4.13339 6.496 3.15206 6.496H2.73606V4.992H3.16806C4.03206 4.98134 4.68806 4.83734 5.13606 4.56C5.59472 4.28267 5.82406 3.84534 5.82406 3.248C5.82406 2.736 5.65872 2.33067 5.32806 2.032C4.99739 1.72267 4.52806 1.568 3.92006 1.568C3.32272 1.568 2.85872 1.72267 2.52806 2.032C2.19739 2.33067 2.00006 2.704 1.93606 3.152H0.160056ZM11.7561 0.0960045V11.936H9.93206V0.0960045H11.7561ZM22.2308 7.312C22.2308 7.64267 22.2095 7.94134 22.1668 8.208H15.4308C15.4841 8.912 15.7455 9.47734 16.2148 9.904C16.6841 10.3307 17.2601 10.544 17.9428 10.544C18.9241 10.544 19.6175 10.1333 20.0228 9.312H21.9908C21.7241 10.1227 21.2388 10.7893 20.5348 11.312C19.8415 11.824 18.9775 12.08 17.9428 12.08C17.1001 12.08 16.3428 11.8933 15.6708 11.52C15.0095 11.136 14.4868 10.6027 14.1028 9.92C13.7295 9.22667 13.5428 8.42667 13.5428 7.52C13.5428 6.61334 13.7241 5.81867 14.0868 5.136C14.4601 4.44267 14.9775 3.90934 15.6388 3.536C16.3108 3.16267 17.0788 2.976 17.9428 2.976C18.7748 2.976 19.5161 3.15734 20.1668 3.52C20.8175 3.88267 21.3241 4.39467 21.6868 5.056C22.0495 5.70667 22.2308 6.45867 22.2308 7.312ZM20.3268 6.736C20.3161 6.064 20.0761 5.52534 19.6068 5.12C19.1375 4.71467 18.5561 4.512 17.8628 4.512C17.2335 4.512 16.6948 4.71467 16.2468 5.12C15.7988 5.51467 15.5321 6.05334 15.4468 6.736H20.3268ZM27.5778 2.976C28.2605 2.976 28.8631 3.11467 29.3858 3.392C29.9191 3.65867 30.3351 3.99467 30.6338 4.4V3.12H32.4738V12.08C32.4738 12.8907 32.3031 13.6107 31.9618 14.24C31.6205 14.88 31.1245 15.3813 30.4738 15.744C29.8338 16.1067 29.0658 16.288 28.1698 16.288C26.9751 16.288 25.9831 16.0053 25.1938 15.44C24.4045 14.8853 23.9565 14.128 23.8498 13.168H25.6578C25.7965 13.6267 26.0898 13.9947 26.5378 14.272C26.9965 14.56 27.5405 14.704 28.1698 14.704C28.9058 14.704 29.4978 14.48 29.9458 14.032C30.4045 13.584 30.6338 12.9333 30.6338 12.08V10.608C30.3245 11.024 29.9031 11.376 29.3698 11.664C28.8471 11.9413 28.2498 12.08 27.5778 12.08C26.8098 12.08 26.1058 11.888 25.4658 11.504C24.8365 11.1093 24.3351 10.5653 23.9618 9.872C23.5991 9.168 23.4178 8.37334 23.4178 7.488C23.4178 6.60267 23.5991 5.81867 23.9618 5.136C24.3351 4.45334 24.8365 3.92534 25.4658 3.552C26.1058 3.168 26.8098 2.976 27.5778 2.976ZM30.6338 7.52C30.6338 6.912 30.5058 6.384 30.2498 5.936C30.0045 5.488 29.6791 5.14667 29.2738 4.912C28.8685 4.67734 28.4311 4.56 27.9618 4.56C27.4925 4.56 27.0551 4.67734 26.6498 4.912C26.2445 5.136 25.9138 5.472 25.6578 5.92C25.4125 6.35734 25.2898 6.88 25.2898 7.488C25.2898 8.096 25.4125 8.62934 25.6578 9.088C25.9138 9.54667 26.2445 9.89867 26.6498 10.144C27.0658 10.3787 27.5031 10.496 27.9618 10.496C28.4311 10.496 28.8685 10.3787 29.2738 10.144C29.6791 9.90934 30.0045 9.568 30.2498 9.12C30.5058 8.66134 30.6338 8.128 30.6338 7.52ZM34.2616 7.488C34.2616 6.60267 34.4429 5.81867 34.8056 5.136C35.1789 4.45334 35.6802 3.92534 36.3096 3.552C36.9496 3.168 37.6536 2.976 38.4216 2.976C39.1149 2.976 39.7176 3.11467 40.2296 3.392C40.7522 3.65867 41.1682 3.99467 41.4776 4.4V3.12H43.3176V11.936H41.4776V10.624C41.1682 11.04 40.7469 11.3867 40.2136 11.664C39.6802 11.9413 39.0722 12.08 38.3896 12.08C37.6322 12.08 36.9389 11.888 36.3096 11.504C35.6802 11.1093 35.1789 10.5653 34.8056 9.872C34.4429 9.168 34.2616 8.37334 34.2616 7.488ZM41.4776 7.52C41.4776 6.912 41.3496 6.384 41.0936 5.936C40.8482 5.488 40.5229 5.14667 40.1176 4.912C39.7122 4.67734 39.2749 4.56 38.8056 4.56C38.3362 4.56 37.8989 4.67734 37.4936 4.912C37.0882 5.136 36.7576 5.472 36.5016 5.92C36.2562 6.35734 36.1336 6.88 36.1336 7.488C36.1336 8.096 36.2562 8.62934 36.5016 9.088C36.7576 9.54667 37.0882 9.89867 37.4936 10.144C37.9096 10.3787 38.3469 10.496 38.8056 10.496C39.2749 10.496 39.7122 10.3787 40.1176 10.144C40.5229 9.90934 40.8482 9.568 41.0936 9.12C41.3496 8.66134 41.4776 8.128 41.4776 7.52ZM50.1613 2.976C50.8546 2.976 51.4733 3.12 52.0173 3.408C52.572 3.696 53.004 4.12267 53.3133 4.688C53.6226 5.25334 53.7773 5.936 53.7773 6.736V11.936H51.9693V7.008C51.9693 6.21867 51.772 5.616 51.3773 5.2C50.9826 4.77334 50.444 4.56 49.7613 4.56C49.0786 4.56 48.5346 4.77334 48.1293 5.2C47.7346 5.616 47.5373 6.21867 47.5373 7.008V11.936H45.7133V3.12H47.5373V4.128C47.836 3.76534 48.2146 3.48267 48.6733 3.28C49.1426 3.07734 49.6386 2.976 50.1613 2.976ZM58.2319 4.608V9.488C58.2319 9.81867 58.3066 10.0587 58.4559 10.208C58.6159 10.3467 58.8826 10.416 59.2559 10.416H60.3759V11.936H58.9359C58.1146 11.936 57.4853 11.744 57.0479 11.36C56.6106 10.976 56.3919 10.352 56.3919 9.488V4.608H55.3519V3.12H56.3919V0.928004H58.2319V3.12H60.3759V4.608H58.2319Z" fill="black"/>
<path d="M62.7931 12.048C62.4624 12.048 62.1851 11.936 61.9611 11.712C61.7371 11.488 61.6251 11.2107 61.6251 10.88C61.6251 10.5493 61.7371 10.272 61.9611 10.048C62.1851 9.824 62.4624 9.712 62.7931 9.712C63.1131 9.712 63.3851 9.824 63.6091 10.048C63.8331 10.272 63.9451 10.5493 63.9451 10.88C63.9451 11.2107 63.8331 11.488 63.6091 11.712C63.3851 11.936 63.1131 12.048 62.7931 12.048Z" fill="#6C7275"/>
</svg>
